<?xml version="1.0" ?><svg height="100" id="svg2" version="1.1" width="100" xmlns="http://www.w3.org/2000/svg" xmlns:cc="http://creativecommons.org/ns#" xmlns:dc="http://purl.org/dc/elements/1.1/" xmlns:inkscape="http://www.inkscape.org/namespaces/inkscape" xmlns:rdf="http://www.w3.org/1999/02/22-rdf-syntax-ns#" xmlns:sodipodi="http://sodipodi.sourceforge.net/DTD/sodipodi-0.dtd" xmlns:svg="http://www.w3.org/2000/svg"><defs id="defs4"><clipPath clipPathUnits="userSpaceOnUse" id="clipPath3929"><path d="m -1494,746.36218 a 202,202 0 1 1 -404,0 202,202 0 1 1 404,0 z" id="path3931" style="fill:#ffd900;fill-opacity:1;fill-rule:evenodd;stroke:none" transform="matrix(0.89148361,0,0,0.89148361,-159.29505,46.344295)"/></clipPath><clipPath clipPathUnits="userSpaceOnUse" id="clipPath3929-1"><path d="m -1494,746.36218 a 202,202 0 1 1 -404,0 202,202 0 1 1 404,0 z" id="path3931-7" style="fill:#ffd900;fill-opacity:1;fill-rule:evenodd;stroke:none" transform="matrix(0.89148361,0,0,0.89148361,-159.29505,46.344295)"/></clipPath><clipPath clipPathUnits="userSpaceOnUse" id="clipPath3929-4"><path d="m -1494,746.36218 a 202,202 0 1 1 -404,0 202,202 0 1 1 404,0 z" id="path3931-0" style="fill:#ffd900;fill-opacity:1;fill-rule:evenodd;stroke:none" transform="matrix(0.89148361,0,0,0.89148361,-159.29505,46.344295)"/></clipPath><clipPath clipPathUnits="userSpaceOnUse" id="clipPath6708"><path d="m -1494,746.36218 a 202,202 0 1 1 -404,0 202,202 0 1 1 404,0 z" id="path6710" style="fill:#efefef;fill-opacity:1;fill-rule:evenodd;stroke:none" transform="matrix(0.89148361,0,0,0.89148361,-2060.5463,694.23496)"/></clipPath><clipPath clipPathUnits="userSpaceOnUse" id="clipPath6370"><path d="m -1494,746.36218 a 202,202 0 1 1 -404,0 202,202 0 1 1 404,0 z" id="path6372" style="fill:#ffd900;fill-opacity:1;fill-rule:evenodd;stroke:none" transform="matrix(0.89148361,0,0,0.89148361,-2059.8392,620.48871)"/></clipPath><clipPath clipPathUnits="userSpaceOnUse" id="clipPath6671"><path d="m -1494,746.36218 a 202,202 0 1 1 -404,0 202,202 0 1 1 404,0 z" id="path6673" style="fill:#efefef;fill-opacity:1;fill-rule:evenodd;stroke:none" transform="matrix(0.89148361,0,0,0.89148361,-2060.5463,694.23496)"/></clipPath><clipPath clipPathUnits="userSpaceOnUse" id="clipPath3889-1"><path d="m 159.035,701.501 18.64,0 0,-8.611 -18.64,0 0,8.611 z" id="path3891-7"/></clipPath><clipPath clipPathUnits="userSpaceOnUse" id="clipPath3873-4"><path d="m 162.569,689.295 18.64,0 0,-8.61 -18.64,0 0,8.61 z" id="path3875-0"/></clipPath><clipPath clipPathUnits="userSpaceOnUse" id="clipPath3857-9"><path d="m 166.194,677.045 18.64,0 0,-8.61 -18.64,0 0,8.61 z" id="path3859-4"/></clipPath><clipPath clipPathUnits="userSpaceOnUse" id="clipPath5343"><path clip-path="none" d="m -1494,746.36218 a 202,202 0 1 1 -404,0 202,202 0 1 1 404,0 z" id="path5345" style="fill:#efefef;fill-opacity:1;fill-rule:evenodd;stroke:none" transform="matrix(0.89148361,0,0,0.89148361,-2040.7473,1296.6899)"/></clipPath><clipPath clipPathUnits="userSpaceOnUse" id="clipPath5343-9"><path clip-path="none" d="m -1494,746.36218 a 202,202 0 1 1 -404,0 202,202 0 1 1 404,0 z" id="path5345-4" style="fill:#efefef;fill-opacity:1;fill-rule:evenodd;stroke:none" transform="matrix(0.89148361,0,0,0.89148361,-2040.7473,1296.6899)"/></clipPath><clipPath clipPathUnits="userSpaceOnUse" id="clipPath6009"><path d="m -1494,746.36218 a 202,202 0 1 1 -404,0 202,202 0 1 1 404,0 z" id="path6011" style="fill:#efefef;fill-opacity:1;fill-rule:evenodd;stroke:none" transform="matrix(0.89148361,0,0,0.89148361,-2040.7473,2054.8464)"/></clipPath><clipPath clipPathUnits="userSpaceOnUse" id="clipPath4698"><path d="m -1494,746.36218 a 202,202 0 1 1 -404,0 202,202 0 1 1 404,0 z" id="path4701" style="fill:#efefef;fill-opacity:1;fill-rule:evenodd;stroke:none" transform="matrix(0.89148361,0,0,0.89148361,-2040.7473,2054.8464)"/></clipPath><clipPath clipPathUnits="userSpaceOnUse" id="clipPath5343-8"><path clip-path="none" d="m -1494,746.36218 a 202,202 0 1 1 -404,0 202,202 0 1 1 404,0 z" id="path5345-8" style="fill:#efefef;fill-opacity:1;fill-rule:evenodd;stroke:none" transform="matrix(0.89148361,0,0,0.89148361,-2040.7473,1296.6899)"/></clipPath><clipPath clipPathUnits="userSpaceOnUse" id="clipPath5343-6"><path clip-path="none" d="m -1494,746.36218 a 202,202 0 1 1 -404,0 202,202 0 1 1 404,0 z" id="path5345-8-2" style="fill:#efefef;fill-opacity:1;fill-rule:evenodd;stroke:none" transform="matrix(0.89148361,0,0,0.89148361,-2040.7473,1296.6899)"/></clipPath><clipPath clipPathUnits="userSpaceOnUse" id="clipPath4924"><path d="m -1494,746.36218 a 202,202 0 1 1 -404,0 202,202 0 1 1 404,0 z" id="path4926" style="fill:#efefef;fill-opacity:1;fill-rule:evenodd;stroke:none" transform="matrix(0.89148361,0,0,0.89148361,-2006.4649,2929.8742)"/></clipPath><clipPath clipPathUnits="userSpaceOnUse" id="clipPath5343-6-4"><path clip-path="none" d="m -1494,746.36218 a 202,202 0 1 1 -404,0 202,202 0 1 1 404,0 z" id="path5345-8-5" style="fill:#efefef;fill-opacity:1;fill-rule:evenodd;stroke:none" transform="matrix(0.89148361,0,0,0.89148361,-2040.7473,1296.6899)"/></clipPath><clipPath clipPathUnits="userSpaceOnUse" id="clipPath5343-6-9"><path clip-path="none" d="m -1494,746.36218 a 202,202 0 1 1 -404,0 202,202 0 1 1 404,0 z" id="path5345-8-4" style="fill:#efefef;fill-opacity:1;fill-rule:evenodd;stroke:none" transform="matrix(0.89148361,0,0,0.89148361,-2040.7473,1296.6899)"/></clipPath><clipPath clipPathUnits="userSpaceOnUse" id="clipPath6012"><path clip-path="none" d="m -104.37944,-91.124399 -4.32616,-0.652954 -0.59232,4.33488 -3.96696,-1.845326 -1.7896,3.992413 -3.28639,-2.8882 -2.8419,3.326504 -2.33956,-3.697089 -3.66397,2.391101 -1.20321,-4.206463 -4.1892,1.261985 0.0306,-4.375053 -4.37505,0.03063 1.26199,-4.189203 -4.20647,-1.203205 2.3911,-3.663973 -3.69709,-2.33956 3.32651,-2.8419 -2.8882,-3.28638 3.99241,-1.7896 -1.84533,-3.96697 4.33489,-0.59231 -0.65296,-4.32617 4.32616,0.65296 0.59232,-4.33488 3.96696,1.84532 1.7896,-3.99241 3.28639,2.8882 2.8419,-3.3265 2.33956,3.69709 3.66397,-2.3911 1.2032,4.20646 4.18921,-1.26199 -0.0306,4.37506 4.37505,-0.0306 -1.26199,4.18921 4.206467,1.2032 -2.391097,3.66397 3.697085,2.33956 -3.326505,2.8419 2.888201,3.28639 -3.992411,1.7896 1.84532,3.966963 -4.33488,0.592316 z" id="path6018" style="fill:#ffd900;fill-opacity:1;stroke:none" transform="matrix(3.6402229,0,0,3.6408728,-3082.8945,5008.0904)"/></clipPath><clipPath clipPathUnits="userSpaceOnUse" id="clipPath6027"><path d="m -1494,746.36218 a 202,202 0 1 1 -404,0 202,202 0 1 1 404,0 z" id="path6033" style="fill:#efefef;fill-opacity:1;fill-rule:evenodd;stroke:none" transform="matrix(0.89148361,0,0,0.89148361,-2006.4649,3991.822)"/></clipPath><clipPath clipPathUnits="userSpaceOnUse" id="clipPath6027-5"><path d="m -1494,746.36218 a 202,202 0 1 1 -404,0 202,202 0 1 1 404,0 z" id="path6033-1" style="fill:#efefef;fill-opacity:1;fill-rule:evenodd;stroke:none" transform="matrix(0.89148361,0,0,0.89148361,-2006.4649,3991.822)"/></clipPath></defs><g id="layer1" transform="translate(0,-952.36218)"><g id="g3553" transform="matrix(0.22212388,0,0,0.22212388,40.163089,783.83876)"><g id="g3776" transform="matrix(0.22212388,0,0,0.22212388,-115.56143,638.49574)"><g id="g4260" transform="matrix(0.22212388,0,0,0.22212388,566.21474,1109.5334)"><path d="m -1494,746.36218 c 0,111.56152 -90.4385,202 -202,202 -111.5615,0 -202,-90.43848 -202,-202 0,-111.56152 90.4385,-202 202,-202 111.5615,0 202,90.43848 202,202 z" id="path6490" style="fill:#efefef;fill-opacity:1;fill-rule:evenodd;stroke:none" transform="matrix(18.068532,0,0,18.068532,31334.907,-11482.363)"/><g clip-path="url(#clipPath6027-5)" id="g6616" transform="matrix(20.267935,0,0,20.267935,72001.807,-92401.684)"><path d="m -3614.1961,4712.4539 131.5698,128.841 101.751,26.3301 7.4688,7.4688 5.0624,-9.9688 49.1876,-9.75 -29.375,-29.125 26.958,-110.9959 -101.0214,-112.0103 -35.5601,5.1876 -60.3009,-59.7981 c -3.7088,80.696 -12.7879,129.9514 -95.7402,163.8206 z" id="path6618" style="fill:#000000;fill-opacity:0.11764706;stroke:none"/></g><g id="g5711-2-1" transform="matrix(7.9461026,0,0,-7.8404017,-115856.06,41140.207)"><path d="m 14667.17,4709.4052 -0.05,564.5819 71.33,-158.7662 -142.57,-246.9396 z" id="path5715-3-4" style="fill:#f05a28;fill-opacity:1;stroke:none"/><path d="m 14667.16,4709.4052 0.05,564.5819 -71.33,-158.7662 142.57,-246.9396 z" id="path5717-1-0" style="fill:#ffe600;fill-opacity:1;stroke:none"/><path d="m 14911.63,5132.8469 -488.918,-282.3345 101.831,141.1567 285.142,9e-4 z" id="path5719-4-9" style="fill:#f05a28;fill-opacity:1;stroke:none"/><path d="m 14911.634,5132.8382 -488.967,-282.2476 173.161,17.6095 142.571,246.9392 z" id="path5721-8-4" style="fill:#ffd900;fill-opacity:1;stroke:none"/><path d="m 14911.647,4850.5468 -488.968,282.2481 173.161,-17.6096 142.572,-246.9396 z" id="path5723-2-8" style="fill:#f05a28;fill-opacity:1;stroke:none"/><path d="m 14911.642,4850.5387 -488.917,282.3341 101.83,-141.1568 285.142,-8e-4 z" id="path5725-0-8" style="fill:#ffd900;fill-opacity:1;stroke:none"/></g><path d="m 2273.4197,-5176.5337 -9.4724,-6.325 -10.5804,4.2174 3.0883,-10.9633 -7.2805,-8.7594 11.3811,-0.4507 6.0808,-9.631 3.9456,10.6848 11.0387,2.8071 -8.9426,7.0543 z" id="path7335-9-2-4-16-54" style="fill:#ff9e0c;fill-opacity:1;fill-rule:evenodd;stroke:none" transform="matrix(-16.175383,0,0,16.175383,34790.286,85038.693)"/><path d="m 2273.4197,-5176.5337 -9.4724,-6.325 -10.5804,4.2174 3.0883,-10.9633 -7.2805,-8.7594 11.3811,-0.4507 6.0808,-9.631 3.9456,10.6848 11.0387,2.8071 -8.9426,7.0543 z" id="path7335-9-2-55-8-3" style="fill:#ff9e0c;fill-opacity:1;fill-rule:evenodd;stroke:none" transform="matrix(-16.175383,0,0,16.175383,39379.783,83964.837)"/></g></g></g></g></svg>