<?xml version="1.0" ?><svg height="100" id="svg2" version="1.1" width="100" xmlns="http://www.w3.org/2000/svg" xmlns:cc="http://creativecommons.org/ns#" xmlns:dc="http://purl.org/dc/elements/1.1/" xmlns:inkscape="http://www.inkscape.org/namespaces/inkscape" xmlns:rdf="http://www.w3.org/1999/02/22-rdf-syntax-ns#" xmlns:sodipodi="http://sodipodi.sourceforge.net/DTD/sodipodi-0.dtd" xmlns:svg="http://www.w3.org/2000/svg"><defs id="defs4"><clipPath clipPathUnits="userSpaceOnUse" id="clipPath3929"><path d="m -1494,746.36218 a 202,202 0 1 1 -404,0 202,202 0 1 1 404,0 z" id="path3931" style="fill:#ffd900;fill-opacity:1;fill-rule:evenodd;stroke:none" transform="matrix(0.89148361,0,0,0.89148361,-159.29505,46.344295)"/></clipPath><clipPath clipPathUnits="userSpaceOnUse" id="clipPath3929-1"><path d="m -1494,746.36218 a 202,202 0 1 1 -404,0 202,202 0 1 1 404,0 z" id="path3931-7" style="fill:#ffd900;fill-opacity:1;fill-rule:evenodd;stroke:none" transform="matrix(0.89148361,0,0,0.89148361,-159.29505,46.344295)"/></clipPath></defs><g id="layer1" transform="translate(0,-952.36218)"><g id="g3156" transform="matrix(0.22168861,0,0,0.22168861,36.563637,780.71032)"><path d="m -1494,746.36218 c 0,111.56152 -90.4385,202 -202,202 -111.5615,0 -202,-90.43848 -202,-202 0,-111.56152 90.4385,-202 202,-202 111.5615,0 202,90.43848 202,202 z" id="path4608" style="fill:#efefef;fill-opacity:1;fill-rule:evenodd;stroke:none" transform="matrix(0.89148361,0,0,0.89148361,1572.2118,334.46459)"/><path clip-path="url(#clipPath3929-1)" d="m -1732.4366,775.81173 126.3765,128.72902 131.2503,-123.49262 -134.6007,-132.76867 z" id="path4610" style="fill:#000000;fill-opacity:0.11904764;stroke:none" transform="translate(1732.214,288.12029)"/><path d="m -3450,308.36221 c 0,44.18278 -35.8172,80 -80,80 -44.1828,0 -80,-35.81722 -80,-80 0,-44.18278 35.8172,-80 80,-80 44.1828,0 80,35.81722 80,80 z" id="path4563" style="fill:#ffe600;fill-opacity:1;fill-rule:evenodd;stroke:#f05a28;stroke-width:17.29999924;stroke-linecap:round;stroke-linejoin:round;stroke-miterlimit:4;stroke-opacity:1;stroke-dasharray:none;stroke-dashoffset:0" transform="translate(3590.2556,691.47203)"/><path d="m -3485.3553,308.36221 c 0,24.65657 -19.9881,44.64466 -44.6447,44.64466 -24.6566,0 -44.6447,-19.98809 -44.6447,-44.64466 0,-24.65656 19.9881,-44.64466 44.6447,-44.64466 24.6566,0 44.6447,19.9881 44.6447,44.64466 z" id="path4565" style="fill:#ffe600;fill-opacity:1;fill-rule:evenodd;stroke:#f05a28;stroke-width:17.29999924;stroke-linecap:round;stroke-linejoin:round;stroke-miterlimit:4;stroke-opacity:1;stroke-dasharray:none;stroke-dashoffset:0" transform="translate(3590.2556,691.47203)"/><path d="m -3519.2965,308.36221 c 0,5.9114 -4.7921,10.70354 -10.7035,10.70354 -5.9114,0 -10.7035,-4.79214 -10.7035,-10.70354 0,-5.9114 4.7921,-10.70353 10.7035,-10.70353 5.9114,0 10.7035,4.79213 10.7035,10.70353 z" id="path4567" style="fill:#ffe600;fill-opacity:1;fill-rule:evenodd;stroke:#f05a28;stroke-width:17.29999924;stroke-linecap:round;stroke-linejoin:round;stroke-miterlimit:4;stroke-opacity:1;stroke-dasharray:none;stroke-dashoffset:0" transform="translate(3590.2556,691.47203)"/><path d="m 60.31537,999.74837 0,87.81253" id="path4606" style="fill:none;stroke:#000000;stroke-width:1px;stroke-linecap:round;stroke-linejoin:round;stroke-opacity:0.39880952"/><g id="g4597" transform="matrix(0.48835198,0.52652031,-0.52652031,0.48835198,1835.7642,2684.8807)"><path d="m -3402.1875,225.78125 a 0.50005,0.50005 0 0 0 -0.375,0.5 l 0,158.09375 a 0.50005,0.50005 0 1 0 1,0 l 0,-158.09375 a 0.50005,0.50005 0 0 0 -0.625,-0.5 z" id="path4576" style="font-size:medium;font-style:normal;font-variant:normal;font-weight:normal;font-stretch:normal;text-indent:0;text-align:start;text-decoration:none;line-height:normal;letter-spacing:normal;word-spacing:normal;text-transform:none;direction:ltr;block-progression:tb;writing-mode:lr-tb;text-anchor:start;baseline-shift:baseline;color:#000000;fill:#424242;fill-opacity:1;stroke:none;stroke-width:1px;marker:none;visibility:visible;display:inline;overflow:visible;enable-background:accumulate;font-family:Sans;-inkscape-font-specification:Sans"/><path d="m -3393.2809,231.56294 -8.7738,-5.16527 -8.7738,5.16527 4.3869,-7.59831 4.3869,-7.59832 4.3869,7.59832 z" id="path4573" style="fill:#3a0256;fill-opacity:1;fill-rule:evenodd;stroke:none"/><path d="m -3393.2809,379.34825 -8.7738,-5.16527 -8.7738,5.16527 4.3869,-7.59831 4.3869,-7.59832 4.3869,7.59832 z" id="path4578" style="fill:#3a0256;fill-opacity:1;fill-rule:evenodd;stroke:none"/><path d="m -3393.2809,384.43058 -8.7738,-5.16527 -8.7738,5.16527 4.3869,-7.59831 4.3869,-7.59832 4.3869,7.59832 z" id="path4580" style="fill:#00ccd6;fill-opacity:1;fill-rule:evenodd;stroke:none"/><path d="m -3393.2809,390.13163 -8.7738,-5.16527 -8.7738,5.16527 4.3869,-7.59831 4.3869,-7.59832 4.3869,7.59832 z" id="path4582" style="fill:#3a0256;fill-opacity:1;fill-rule:evenodd;stroke:none"/><path d="m -3402.0625,364.15625 c 0,13.05171 0,16.48586 0,20.8125 l 8.7813,5.15625 -4.375,-7.59375 -0.5938,-1.03125 4.9688,2.9375 -4.375,-7.59375 -0.063,-0.0937 4.4376,2.59375 -4.375,-7.59375 z" id="path4584" style="fill:#000000;fill-opacity:0.32738097;fill-rule:evenodd;stroke:none"/><path d="m -3393.2809,231.56294 -8.7738,-5.16527 c 0,-2.93568 0,-3.08646 0,-10.03136 l 4.3869,7.59832 z" id="path4591" style="fill:#000000;fill-opacity:0.47023806;fill-rule:evenodd;stroke:none"/></g><path d="m -1689.25,606.6875 -6.8246,-5.35849 -7.7895,3.82248 2.9873,-8.14643 -6.0425,-6.22709 8.6708,0.32372 4.0551,-7.67103 2.3716,8.3465 8.5486,1.48613 -7.2051,4.8347 z" id="path4221-1-0" style="fill:#ff9e0c;fill-opacity:1;fill-rule:evenodd;stroke:none" transform="matrix(0.99225301,-0.12423352,0.12423352,0.99225301,1678.0661,73.223665)"/><path d="m -1689.25,606.6875 -6.8246,-5.35849 -7.7895,3.82248 2.9873,-8.14643 -6.0425,-6.22709 8.6708,0.32372 4.0551,-7.67103 2.3716,8.3465 8.5486,1.48613 -7.2051,4.8347 z" id="path4221-1-7-0" style="fill:#ff9e0c;fill-opacity:1;fill-rule:evenodd;stroke:none" transform="matrix(0.99225301,-0.12423352,0.12423352,0.99225301,1630.4386,148.66546)"/><path d="m -1689.25,606.6875 -6.8246,-5.35849 -7.7895,3.82248 2.9873,-8.14643 -6.0425,-6.22709 8.6708,0.32372 4.0551,-7.67103 2.3716,8.3465 8.5486,1.48613 -7.2051,4.8347 z" id="path4221-1-4-7" style="fill:#ff9e0c;fill-opacity:1;fill-rule:evenodd;stroke:none" transform="matrix(0.99225301,-0.12423352,0.12423352,0.99225301,1599.8565,108.88916)"/></g></g></svg>