<?xml version="1.0" ?><svg height="100" id="svg2" version="1.1" width="100" xmlns="http://www.w3.org/2000/svg" xmlns:cc="http://creativecommons.org/ns#" xmlns:dc="http://purl.org/dc/elements/1.1/" xmlns:inkscape="http://www.inkscape.org/namespaces/inkscape" xmlns:rdf="http://www.w3.org/1999/02/22-rdf-syntax-ns#" xmlns:sodipodi="http://sodipodi.sourceforge.net/DTD/sodipodi-0.dtd" xmlns:svg="http://www.w3.org/2000/svg"><defs id="defs4"><clipPath clipPathUnits="userSpaceOnUse" id="clipPath3929"><path d="m -1494,746.36218 a 202,202 0 1 1 -404,0 202,202 0 1 1 404,0 z" id="path3931" style="fill:#ffd900;fill-opacity:1;fill-rule:evenodd;stroke:none" transform="matrix(0.89148361,0,0,0.89148361,-159.29505,46.344295)"/></clipPath></defs><g id="layer1" transform="translate(0,-952.36218)"><g id="g3020" transform="matrix(0.22212385,0,0,0.22212385,31.264359,780.27515)"><path d="m -1494,746.36218 c 0,111.56152 -90.4385,202 -202,202 -111.5615,0 -202,-90.43848 -202,-202 0,-111.56152 90.4385,-202 202,-202 111.5615,0 202,90.43848 202,202 z" id="path4163" style="fill:#efefef;fill-opacity:1;fill-rule:evenodd;stroke:none" transform="matrix(0.89148361,0,0,0.89148361,1596.3039,334.46459)"/><path clip-path="url(#clipPath3929)" d="m -1670.4514,803.26172 85.3288,89.51341 110.3128,-111.727 -93.553,-93.55305 z" id="path3925" style="fill:#000000;fill-opacity:0.11904764;stroke:none" transform="translate(1755.599,288.12029)"/><path d="m 33.062905,1039.0639 54.3191,54.5754 54.966605,-54.5754 54.0004,-54.50283 -217.932903,0.01 z" id="path4131" style="fill:#00aee7;fill-opacity:1;stroke:none"/><path d="m 32.957405,930.01037 108.836505,0 54.5496,54.5479 -217.935203,10e-4 z" id="path4133" style="fill:#0077a1;fill-opacity:1;stroke:none"/><rect height="77.14286" id="rect4135" style="fill:#00cafa;fill-opacity:0.61309521;fill-rule:evenodd;stroke:none" transform="matrix(0.70710678,0.70710678,-0.70710678,0.70710678,0,0)" width="77.14286" x="680.91864" y="634.31366"/><path d="m 87.376805,930.00957 54.548305,54.5483 -54.537205,109.07283 -54.5593,-109.07293 z" id="path4137" style="fill:#44dbff;fill-opacity:0.64285715;fill-rule:evenodd;stroke:none"/><rect height="77.14286" id="rect4139" style="fill:#00cafa;fill-opacity:0.61309521;fill-rule:evenodd;stroke:none" transform="matrix(0.70710678,0.70710678,-0.70710678,0.70710678,0,0)" width="77.14286" x="757.883" y="557.3493"/><path d="m -21.592393,984.55367 54.452998,0.023 54.5156,109.04693 z" id="path4141" style="fill:#72e6ff;fill-opacity:1;stroke:none"/><path d="m 196.34901,984.55367 -54.453,0.023 -54.515605,109.04693 z" id="path4143" style="fill:#72e6ff;fill-opacity:1;stroke:none"/><path d="m -1689.25,606.6875 -6.547,-7.99998 -8.0671,6.46397 5.5853,-8.69865 -8.6405,-5.67487 9.9988,2.62392 2.7271,-9.97123 0.5943,10.32032 10.3259,-0.48769 -9.6315,3.75439 z" id="path4221" style="fill:#ffffff;fill-opacity:1;fill-rule:evenodd;stroke:none" transform="matrix(0.99225301,-0.12423352,0.12423352,0.99225301,1749.5499,183.03993)"/><path d="m -1689.25,606.6875 -6.8246,-5.35849 -7.7895,3.82248 2.9873,-8.14643 -6.0425,-6.22709 8.6708,0.32372 4.0551,-7.67103 2.3716,8.3465 8.5486,1.48613 -7.2051,4.8347 z" id="path4221-1" style="fill:#ff9e0c;fill-opacity:1;fill-rule:evenodd;stroke:none" transform="matrix(0.99225301,-0.12423352,0.12423352,0.99225301,1705.142,97.777275)"/><path d="m -1689.25,606.6875 -6.8246,-5.35849 -7.7895,3.82248 2.9873,-8.14643 -6.0425,-6.22709 8.6708,0.32372 4.0551,-7.67103 2.3716,8.3465 8.5486,1.48613 -7.2051,4.8347 z" id="path4221-1-7" style="fill:#ff9e0c;fill-opacity:1;fill-rule:evenodd;stroke:none" transform="matrix(0.99225301,-0.12423352,0.12423352,0.99225301,1784.5145,114.21907)"/><path d="m -1689.25,606.6875 -6.8246,-5.35849 -7.7895,3.82248 2.9873,-8.14643 -6.0425,-6.22709 8.6708,0.32372 4.0551,-7.67103 2.3716,8.3465 8.5486,1.48613 -7.2051,4.8347 z" id="path4221-1-4" style="fill:#ff9e0c;fill-opacity:1;fill-rule:evenodd;stroke:none" transform="matrix(0.99225301,-0.12423352,0.12423352,0.99225301,1753.9324,74.442775)"/></g></g></svg>