<?xml version="1.0" ?><svg height="100" id="svg2" version="1.1" width="100" xmlns="http://www.w3.org/2000/svg" xmlns:cc="http://creativecommons.org/ns#" xmlns:dc="http://purl.org/dc/elements/1.1/" xmlns:inkscape="http://www.inkscape.org/namespaces/inkscape" xmlns:rdf="http://www.w3.org/1999/02/22-rdf-syntax-ns#" xmlns:sodipodi="http://sodipodi.sourceforge.net/DTD/sodipodi-0.dtd" xmlns:svg="http://www.w3.org/2000/svg"><defs id="defs4"><clipPath clipPathUnits="userSpaceOnUse" id="clipPath3929"><path d="m -1494,746.36218 a 202,202 0 1 1 -404,0 202,202 0 1 1 404,0 z" id="path3931" style="fill:#ffd900;fill-opacity:1;fill-rule:evenodd;stroke:none" transform="matrix(0.89148361,0,0,0.89148361,-159.29505,46.344295)"/></clipPath><clipPath clipPathUnits="userSpaceOnUse" id="clipPath3929-1"><path d="m -1494,746.36218 a 202,202 0 1 1 -404,0 202,202 0 1 1 404,0 z" id="path3931-7" style="fill:#ffd900;fill-opacity:1;fill-rule:evenodd;stroke:none" transform="matrix(0.89148361,0,0,0.89148361,-159.29505,46.344295)"/></clipPath><clipPath clipPathUnits="userSpaceOnUse" id="clipPath3929-4"><path d="m -1494,746.36218 a 202,202 0 1 1 -404,0 202,202 0 1 1 404,0 z" id="path3931-0" style="fill:#ffd900;fill-opacity:1;fill-rule:evenodd;stroke:none" transform="matrix(0.89148361,0,0,0.89148361,-159.29505,46.344295)"/></clipPath></defs><g id="layer1" transform="translate(0,-952.36218)"><g id="g3206" transform="matrix(0.22168861,0,0,0.22168861,35.667882,776.79138)"><path d="m -1494,746.36218 c 0,111.56152 -90.4385,202 -202,202 -111.5615,0 -202,-90.43848 -202,-202 0,-111.56152 90.4385,-202 202,-202 111.5615,0 202,90.43848 202,202 z" id="path4188" style="fill:#efefef;fill-opacity:1;fill-rule:evenodd;stroke:none" transform="matrix(0.89148361,0,0,0.89148361,1576.2524,352.14226)"/><path clip-path="url(#clipPath3929-4)" d="m -1731.6944,816.18673 126.3765,128.72902 160.6104,-164.71424 -134.6007,-132.76867 -179.6634,0.57143 18.1935,60.12347 110.3533,115.07862 -42.846,-40.27302 z" id="path4248" style="fill:#000000;fill-opacity:0.11904764;stroke:none" transform="translate(1736.2546,305.09085)"/><path d="m 123.64248,939.88394 -109.8438,0.3125 c 0.012,3.942 0.2539,8.2326 0.3438,12.75 l -3.8126,0.031 -33.062398,0.094 c -0.1508,35.173 13.1598985,75.83036 55.124998,76.34376 6.6325,10.8494 15.7022,20.7243 28.1874,28.625 l 0.094,24.2187 -32.9688,0.094 0.031,6.0625 96.5625,0 -0.062,-0.2812 -13.7187,0.062 0,-6.0938 -32.9688,0.094 -0.062,-24.375 c 12.2984,-7.883 21.2055,-17.6439 27.6875,-28.75 39.6721,-2.5306 52.0155,-42.20766 51.7812,-76.56246 l -33.0312,0.094 -0.9688,0 c 0.2407,-4.2141 0.4694,-8.4391 0.6563,-12.6875 l 0.031,-0.031 z m 21.4062,23.625 c 0.069,23.8145 -8.1274,51.22046 -34.4062,54.62496 6.9876,-16.4453 9.961,-35.13116 11.5624,-54.56246 l 22.8438,-0.062 z m -132.0625,0.375 1.7187,0 c 1.1295,17.271 3.9235,36.80656 12.0313,54.71876 -28.4551995,-1.6396 -37.4923,-30.03126 -37.4687,-54.65626 l 23.7187,-0.062 z" id="path4232" style="fill:#ffe600;fill-opacity:1;stroke:none"/><path d="m 14.01748,1088.5089 -9.4687995,32.7813 128.3749995,-0.375 -8.5938,-32.4063 -110.3124,0 z" id="path4204-8" style="fill:#333333;fill-opacity:1;stroke:none"/><rect height="9.0156116" id="rect4234" style="fill:#424242;fill-opacity:1;fill-rule:evenodd;stroke:none" width="83.438599" x="27.44322" y="1081.8794"/><path d="m 123.64248,939.88394 -54.3438,0.1563 0,148.37496 55,0 -0.062,-0.2813 -13.7187,0.062 0,-6.0937 -32.9688,0.094 -0.062,-24.375 c 12.2984,-7.8831 21.2055,-17.644 27.6875,-28.75 39.6721,-2.5306 52.0156,-42.20776 51.7812,-76.56246 l -33.0312,0.094 -0.9688,0 c 0.2408,-4.2141 0.4694,-8.4391 0.6563,-12.6875 l 0.031,-0.031 z m 21.4062,23.625 c 0.069,23.8145 -8.1274,51.22046 -34.4062,54.62496 6.9875,-16.4453 9.961,-35.13116 11.5624,-54.56246 l 22.8438,-0.062 z" id="path4241" style="fill:#f05a28;fill-opacity:0.29569894;stroke:none"/><path d="m 105.17468,1029.0714 c 39.6721,-2.5306 52.0156,-42.20776 51.7812,-76.56246 l -34.0312,0.1562 c -0.1169,3.7521 -0.4818,7.3165 -0.7189,10.9174 -1.719,26.1039 -6.4086,42.89316 -11.5515,54.55056 -1.8255,4.1378 -3.6334,8.0744 -5.4796,10.9383 z m 39.874,-65.56246 c 0.069,23.8145 -8.1274,51.22046 -34.4062,54.62496 6.9875,-16.4453 9.961,-35.13116 11.5624,-54.56246 z" id="path4244" style="fill:#f05a28;fill-opacity:0.29569894;stroke:none"/><path d="m -1689.25,606.6875 -6.8246,-5.35849 -7.7895,3.82248 2.9873,-8.14643 -6.0425,-6.22709 8.6708,0.32372 4.0551,-7.67103 2.3716,8.3465 8.5486,1.48613 -7.2051,4.8347 z" id="path4221-1-0-4" style="fill:#ffffff;fill-opacity:1;fill-rule:evenodd;stroke:none" transform="matrix(0.99225301,-0.12423352,0.12423352,0.99225301,1712.5617,162.67691)"/><path d="m -1689.25,606.6875 -6.8246,-5.35849 -7.7895,3.82248 2.9873,-8.14643 -6.0425,-6.22709 8.6708,0.32372 4.0551,-7.67103 2.3716,8.3465 8.5486,1.48613 -7.2051,4.8347 z" id="path4221-1-4-7-8" style="fill:#ff9e0c;fill-opacity:1;fill-rule:evenodd;stroke:none" transform="matrix(0.99225301,-0.12423352,0.12423352,0.99225301,1642.5704,117.29216)"/><path d="m -1689.25,606.6875 -6.8246,-5.35849 -7.7895,3.82248 2.9873,-8.14643 -6.0425,-6.22709 8.6708,0.32372 4.0551,-7.67103 2.3716,8.3465 8.5486,1.48613 -7.2051,4.8347 z" id="path4221-1-4-7-8-8" style="fill:#ff9e0c;fill-opacity:1;fill-rule:evenodd;stroke:none" transform="matrix(0.99225301,-0.12423352,0.12423352,0.99225301,1607.9992,84.964904)"/><path d="m -1689.25,606.6875 -6.8246,-5.35849 -7.7895,3.82248 2.9873,-8.14643 -6.0425,-6.22709 8.6708,0.32372 4.0551,-7.67103 2.3716,8.3465 8.5486,1.48613 -7.2051,4.8347 z" id="path4221-1-4-7-8-2" style="fill:#ff9e0c;fill-opacity:1;fill-rule:evenodd;stroke:none" transform="matrix(0.99225301,-0.12423352,0.12423352,0.99225301,1644.7687,76.479614)"/></g></g></svg>